<svg width="113" height="26" viewBox="0 0 113 26" fill="none" xmlns="http://www.w3.org/2000/svg">
<path fill-rule="evenodd" clip-rule="evenodd" d="M97.7189 16.507C97.7189 15.9108 98.0473 15.2039 98.4292 14.9343C99.9585 13.8557 103.519 14.548 103.519 16.507C103.519 18.2954 100.083 19.1947 98.5138 18.1074C98.0938 17.8158 97.7189 17.1935 97.7189 16.507ZM96.2686 10.0471C96.2686 10.8225 96.8577 11.4303 97.6061 11.4303C97.9373 11.4303 100.573 9.44075 102.876 10.9406C103.589 11.4041 103.517 11.6985 103.517 12.815C101.492 11.4128 98.2192 11.6154 96.5716 13.1298C94.7492 14.806 94.9042 18.4441 96.5984 19.8535C98.5984 21.5195 101.529 21.5355 103.629 20.0809C103.767 20.6158 104.307 21.0385 104.913 20.9423C105.471 20.8534 105.971 20.336 105.971 19.7354V11.6606C105.971 11.0543 105.66 10.3969 105.416 10.0442C102.911 6.41341 96.2686 7.95405 96.2686 10.0471Z" fill="black"/>
<path fill-rule="evenodd" clip-rule="evenodd" d="M72.8464 14.5444C72.8464 10.3262 77.4962 8.65587 79.2819 12.7341C81.0733 16.824 75.9232 20.7711 73.4919 16.7613C73.1706 16.2322 72.8478 15.365 72.8478 14.5429L72.8464 14.5444ZM79.6498 9.23889C79.3355 9.15144 79.2044 8.98528 78.9662 8.79288C77.5286 7.63704 75.4638 7.65307 73.8866 8.46785C70.69 10.1178 69.2242 15.0997 71.9993 18.7655C73.4764 20.7142 76.153 21.5436 78.3898 20.3921C78.9676 20.0947 79.1833 19.828 79.6498 19.5044C79.6893 21.3293 81.8809 20.9824 81.8809 19.6196V6.00895C81.8809 4.59804 79.6301 3.98004 79.6456 6.35002C79.6512 7.31201 79.6498 8.27545 79.6498 9.23889Z" fill="black"/>
<path fill-rule="evenodd" clip-rule="evenodd" d="M90.2459 12.8149H86.1191V7.39284H90.2459C93.2382 7.39284 93.358 12.8149 90.2459 12.8149ZM83.6653 6.35506V19.2734C83.6653 21.7585 86.1191 21.1857 86.1191 19.8505V15.4677C89.0451 15.4677 91.6709 15.905 93.5116 14.0014C96.587 10.8195 94.8901 4.74155 89.7992 4.74155H85.2269C84.2502 4.74155 83.6653 5.34789 83.6653 6.35652V6.35506Z" fill="black"/>
<path fill-rule="evenodd" clip-rule="evenodd" d="M64.5927 10.7394C66.7604 10.7394 67.1452 11.923 67.8274 13.3922H61.9162C62.0106 12.2188 63.2862 10.7394 64.5941 10.7394H64.5927ZM59.5737 13.9694C59.5737 15.921 59.6569 16.9909 60.7534 18.6321C62.8493 21.7716 66.7647 21.4451 68.5152 19.1787C69.1579 18.3479 69.7372 17.638 69.0818 16.711C68.0924 15.3118 66.9225 17.5127 66.8577 17.5797C64.9 19.6086 62.0797 17.829 61.9176 15.8161C63.0663 15.8161 69.0804 16.0289 69.6428 15.6164C70.0303 15.3322 70.2051 14.8862 70.1304 14.2536C69.9246 12.5133 69.5328 11.133 68.363 9.84303C66.1939 7.4541 62.425 7.7427 60.5547 10.8312C60.1614 11.4813 59.5751 12.9695 59.5751 13.9708L59.5737 13.9694Z" fill="black"/>
<path fill-rule="evenodd" clip-rule="evenodd" d="M39.4962 12.4695C39.4962 14.975 40.0994 16.969 41.5864 18.4979C44.0867 21.0691 47.7329 21.7148 50.6054 19.9205C54.0698 17.756 51.9317 16.5069 51.654 16.5069C50.222 16.5069 51.0423 16.6818 49.3778 17.7298C44.6054 20.7309 39.382 14.2011 43.2213 9.05736C44.5265 7.30976 47.203 6.66115 49.3778 8.01958C50.5194 8.73379 50.6942 9.35762 51.3186 9.35762C52.2544 9.35762 53.9725 7.91173 50.3799 5.71519C47.5483 3.98362 44.0867 4.66867 41.7541 7.07946C40.9704 7.88986 40.7647 8.23968 40.2375 9.31826C39.8105 10.1943 39.4947 11.2102 39.4947 12.4724L39.4962 12.4695Z" fill="black"/>
<path fill-rule="evenodd" clip-rule="evenodd" d="M106.753 6.35654V19.39C106.753 21.4976 109.207 21.2454 109.207 19.852V5.89596C109.207 4.44715 106.753 4.19645 106.753 6.358V6.35654Z" fill="black"/>
<path fill-rule="evenodd" clip-rule="evenodd" d="M55.7809 9.70152C55.4919 8.58066 53.5497 8.98441 53.5497 10.1636V19.8519C53.5497 21.0253 55.4003 21.3619 55.8824 20.1886C56.2615 19.2631 55.7118 13.6194 56.1431 12.6152C57.0156 10.5877 58.7421 11.6867 59.6118 11.2436C60.4842 10.8005 60.8732 8.89404 58.122 8.89404C56.9719 8.89404 56.4631 9.22782 55.7795 9.70152H55.7809Z" fill="black"/>
<path fill-rule="evenodd" clip-rule="evenodd" d="M109.988 19.7368C109.988 21.5543 113 22.0514 113 19.5065C113 17.6962 109.988 17.6379 109.988 19.7368Z" fill="black"/>
<path fill-rule="evenodd" clip-rule="evenodd" d="M0 12.9358C0 16.2925 1.36998 19.8111 3.56871 22.0659C7.87173 26.4794 14.1395 27.2635 19.3249 23.9913C19.7857 23.7013 20.5328 23.1241 20.895 22.7539C23.9958 19.5764 23.4658 18.7514 23.4658 14.1951V8.70013C23.4658 6.94524 24.0127 5.89434 24.7766 4.90466C25.7477 3.64825 27.2332 3.20662 28.8907 3.20662C32.9175 3.20662 35.4531 8.70159 32.2424 12.1677C31.112 13.3876 29.1585 14.0537 27.3869 13.5742C26.8132 13.4182 26.8118 13.2798 26.1226 13.2798C24.7216 13.2798 23.9154 15.6352 25.8027 16.3567C28.754 17.4848 31.6251 16.6963 33.9661 14.7504C39.2304 10.3763 36.6145 0 28.5581 0C27.2008 0 25.6561 0.472247 24.7583 0.992594C22.723 2.17321 21.1628 4.12633 20.654 6.59251C20.3439 8.09379 20.4764 14.2622 20.4778 16.2546C20.4792 18.645 19.9986 19.8286 18.0888 21.1097C14.3228 23.6357 9.21916 23.4812 6.0606 20.1754C5.30232 19.3825 4.54404 18.4774 4.05637 17.4411C2.51163 14.1558 2.80902 10.2787 4.82452 7.27902C5.04016 6.9569 5.11909 6.92629 5.3291 6.65664C5.54334 6.38262 5.57998 6.30537 5.83791 6.03718C7.08104 4.74288 9.51937 3.20662 11.9549 3.20662C13.2713 3.20662 13.7872 3.1454 15.1022 3.50104C16.0874 3.76777 15.9577 4.00827 17.1571 4.00827C18.1705 4.00827 18.3749 2.97195 18.3749 2.17758C18.3749 0.620918 14.3918 0.00291511 12.6187 0.00291511C10.4919 0.00291511 9.0007 0.514516 7.50951 1.1296C6.7625 1.4386 6.14376 1.82923 5.51092 2.26795C5.17829 2.49825 4.93868 2.70522 4.63284 2.9632C4.45666 3.11188 4.40169 3.19496 4.23255 3.35091C3.23749 4.26771 2.39041 5.23699 1.73361 6.48902C1.50387 6.92775 1.35306 7.10703 1.15433 7.60697C0.521494 9.1957 0.00140944 10.7422 0.00140944 12.9387L0 12.9358Z" fill="black"/>
</svg>
